<svg width="16" height="17" viewBox="0 0 16 17" fill="none" xmlns="http://www.w3.org/2000/svg">
<path d="M7.9987 1.33325H7.96045C6.42152 1.33324 5.21549 1.33324 4.2745 1.45975C3.31134 1.58924 2.55133 1.85947 1.95479 2.45601C1.35825 3.05255 1.08802 3.81256 0.958529 4.77572C0.832016 5.71671 0.832023 6.92274 0.832031 8.46167V8.53817C0.832023 10.0771 0.832016 11.2831 0.958529 12.2241C1.08802 13.1873 1.35825 13.9473 1.95479 14.5438C2.55133 15.1404 3.31134 15.4106 4.2745 15.5401C5.21549 15.6666 6.42152 15.6666 7.96045 15.6666H8.03695C9.57588 15.6666 10.7819 15.6666 11.7229 15.5401C12.6861 15.4106 13.4461 15.1404 14.0426 14.5438C14.6391 13.9473 14.9094 13.1873 15.0389 12.2241C15.1654 11.2831 15.1654 10.0771 15.1654 8.53817V8.49992C15.1654 8.22378 14.9415 7.99992 14.6654 7.99992C14.3892 7.99992 14.1654 8.22378 14.1654 8.49992C14.1654 10.0854 14.1643 11.2242 14.0478 12.0909C13.9332 12.9431 13.7153 13.4569 13.3355 13.8367C12.9557 14.2165 12.4419 14.4344 11.5896 14.549C10.723 14.6655 9.58418 14.6666 7.9987 14.6666C6.41321 14.6666 5.2744 14.6655 4.40775 14.549C3.55548 14.4344 3.04167 14.2165 2.6619 13.8367C2.28212 13.4569 2.0642 12.9431 1.94961 12.0909C1.83309 11.2242 1.83203 10.0854 1.83203 8.49992C1.83203 6.91444 1.83309 5.77562 1.94961 4.90897C2.0642 4.0567 2.28212 3.54289 2.6619 3.16312C3.04167 2.78335 3.55548 2.56542 4.40775 2.45083C5.2744 2.33431 6.41321 2.33325 7.9987 2.33325C8.27484 2.33325 8.4987 2.10939 8.4987 1.83325C8.4987 1.55711 8.27484 1.33325 7.9987 1.33325Z" fill="white"/>
<path d="M8.31181 7.4797C8.11655 7.67496 8.11655 7.99154 8.31181 8.1868C8.50707 8.38207 8.82366 8.38207 9.01892 8.1868L14.1654 3.04036V5.39575C14.1654 5.67189 14.3892 5.89575 14.6654 5.89575C14.9415 5.89575 15.1654 5.67189 15.1654 5.39575V1.83325C15.1654 1.55711 14.9415 1.33325 14.6654 1.33325H11.1029C10.8267 1.33325 10.6029 1.55711 10.6029 1.83325C10.6029 2.10939 10.8267 2.33325 11.1029 2.33325H13.4583L8.31181 7.4797Z" fill="white"/>
</svg>
