<svg width="16" height="16" viewBox="0 0 16 16" fill="none" xmlns="http://www.w3.org/2000/svg">
<g clip-path="url(#clip0_4910_2181)">
<mask id="mask0_4910_2181" style="mask-type:luminance" maskUnits="userSpaceOnUse" x="0" y="0" width="16" height="16">
<path d="M16 0H0V16H16V0Z" fill="white"/>
</mask>
<g mask="url(#mask0_4910_2181)">
<path d="M11.3346 7.99739C11.3346 9.83832 9.84224 11.3307 8.0013 11.3307C6.16036 11.3307 4.66797 9.83832 4.66797 7.99739C4.66797 6.15644 6.16036 4.66406 8.0013 4.66406C9.84224 4.66406 11.3346 6.15644 11.3346 7.99739Z" stroke="black"/>
<path d="M7.9987 1.33203V2.33203M7.9987 13.6654V14.6654M12.7126 12.7129L12.0054 12.0058M3.99154 3.99154L3.28443 3.28443M14.6654 7.9987H13.6654M2.33203 7.9987H1.33203M12.7129 3.28451L12.0058 3.99161M3.99186 12.0059L3.28476 12.713" stroke="black" stroke-linecap="round"/>
</g>
</g>
<defs>
<clipPath id="clip0_4910_2181">
<rect width="16" height="16" fill="white"/>
</clipPath>
</defs>
</svg>
