<svg width="666" height="761" viewBox="0 0 666 761" fill="none" xmlns="http://www.w3.org/2000/svg">
<g opacity="0.5" clip-path="url(#clip0_3078_187)">
<path opacity="0.05" d="M360.761 -1499.54L26.8635 874.905L868.345 2651.77L2043.72 2054.19L2377.62 -320.256L1536.14 -2097.12L360.761 -1499.54Z" stroke="#B1B1B1" stroke-width="5"/>
<path opacity="0.1" d="M428.521 -1474.9L71.2043 767.551L844.919 2519.78L1975.95 2029.55L2333.27 -212.903L1559.55 -1965.13L428.521 -1474.9Z" stroke="#B1B1B1" stroke-width="5"/>
<path opacity="0.14" d="M494.376 -1442.88L117.73 667.265L825.591 2387.47L1910.1 1997.53L2286.74 -112.617L1578.88 -1832.83L494.376 -1442.88Z" stroke="#B1B1B1" stroke-width="5"/>
<path opacity="0.19" d="M558.152 -1403.73L166.247 574.223L810.337 2255.28L1846.33 1958.38L2238.24 -19.5738L1594.15 -1700.63L558.152 -1403.73Z" stroke="#B1B1B1" stroke-width="5"/>
<path opacity="0.23" d="M619.675 -1357.71L216.552 488.579L799.113 2123.61L1784.8 1912.36L2187.92 66.0691L1605.36 -1568.97L619.675 -1357.71Z" stroke="#B1B1B1" stroke-width="5"/>
<path opacity="0.28" d="M678.804 -1305.09L268.466 410.472L791.899 1992.89L1725.67 1859.74L2136.01 144.176L1612.58 -1438.24L678.804 -1305.09Z" stroke="#B1B1B1" stroke-width="5"/>
<path opacity="0.32" d="M735.387 -1246.16L321.787 340.021L788.64 1863.5L1669.09 1800.81L2082.69 214.627L1615.84 -1308.86L735.387 -1246.16Z" stroke="#B1B1B1" stroke-width="5"/>
<path opacity="0.37" d="M789.272 -1181.22L376.308 277.325L789.272 1735.87L1615.2 1735.87L2028.16 277.324L1615.2 -1181.22L789.272 -1181.22Z" stroke="#B1B1B1" stroke-width="5"/>
<path opacity="0.41" d="M840.342 -1110.58L431.845 222.466L793.744 1610.37L1564.14 1665.23L1972.64 332.181L1610.74 -1055.72L840.342 -1110.58Z" stroke="#B1B1B1" stroke-width="5"/>
<path opacity="0.46" d="M888.45 -1034.58L488.177 175.507L801.965 1487.41L1516.03 1589.22L1916.3 379.141L1602.51 -932.758L888.45 -1034.58Z" stroke="#B1B1B1" stroke-width="5"/>
<path opacity="0.5" d="M933.493 -953.535L545.118 136.489L813.866 1367.35L1470.99 1508.18L1859.36 418.159L1590.62 -812.7L933.493 -953.535Z" stroke="#B1B1B1" stroke-width="5"/>
<path opacity="0.55" d="M975.347 -867.809L602.453 105.436L829.344 1250.57L1429.13 1422.46L1802.03 449.211L1575.13 -695.921L975.347 -867.809Z" stroke="#B1B1B1" stroke-width="5"/>
<path opacity="0.59" d="M1013.92 -777.75L659.984 82.3544L848.307 1137.43L1390.56 1332.4L1744.49 472.293L1556.17 -582.781L1013.92 -777.75Z" stroke="#B1B1B1" stroke-width="5"/>
<path opacity="0.64" d="M1049.11 -683.725L717.513 67.2283L870.648 1028.28L1355.38 1238.37L1686.97 487.42L1533.83 -473.63L1049.11 -683.725Z" stroke="#B1B1B1" stroke-width="5"/>
</g>
<defs>
<clipPath id="clip0_3078_187">
<rect width="666" height="761" fill="white" transform="matrix(-1 0 0 1 666 0)"/>
</clipPath>
</defs>
</svg>
