<svg width="77" height="90" viewBox="0 0 77 90" fill="none" xmlns="http://www.w3.org/2000/svg">
<path d="M57.1031 11.9228C58.1651 12.0897 61.0101 16.5711 63.6409 21.9899C67.7057 30.4296 68.025 32.0199 66.5171 33.3065C62.8185 36.7098 60.9387 35.1422 56.5546 25.1121C51.9635 14.1623 51.9953 10.8693 57.1031 11.9228Z" fill="black"/>
<path d="M38.0613 39.6578C49.7213 47.0642 52.1996 49.8307 48.2114 51.347C46.5913 51.963 41.8995 49.7528 34.0115 44.7637C27.4224 40.5646 21.99 36.7816 21.7531 36.1585C21.5635 35.66 22.7449 34.6402 24.3651 34.0242C26.6084 33.1713 30.0013 34.5915 38.0613 39.6578Z" fill="black"/>
<path d="M22.6559 62.2791C34.0705 63.7876 44.79 66.8443 44.4388 68.5469C43.8435 71.4835 39.5536 71.8308 29.5398 69.5043C23.9632 68.3437 18.0427 67.0286 16.2155 66.7248C14.3882 66.4211 12.7155 65.7732 12.4785 65.1501C11.4835 62.5329 15.7384 61.3431 22.6559 62.2791Z" fill="black"/>
</svg>
